<?xml version="1.0" encoding="utf-8"?>
<!-- Generator: Adobe Illustrator 16.0.0, SVG Export Plug-In . SVG Version: 6.00 Build 0)  -->
<!DOCTYPE svg PUBLIC "-//W3C//DTD SVG 1.1//EN" "http://www.w3.org/Graphics/SVG/1.1/DTD/svg11.dtd">
<svg version="1.1" id="Layer_1" xmlns="http://www.w3.org/2000/svg" xmlns:xlink="http://www.w3.org/1999/xlink" x="0px" y="0px"
	 width="833px" height="784px" viewBox="0 0 833 784" enable-background="new 0 0 833 784" xml:space="preserve">
<path fill="none" stroke="#59AAB5" stroke-width="19" stroke-miterlimit="10" d="M823.5,762.723c0,6.228-4.873,11.777-11.5,11.777
	H22c-6.627,0-12.5-5.55-12.5-11.777V20.278C9.5,14.049,15.373,9.5,22,9.5h790c6.627,0,11.5,4.549,11.5,10.778V762.723z"/>
<polygon fill="#59AAB5" points="789,426 44,426 44,47 789,47 789,91 "/>
<rect x="44" y="406" opacity="0.2" fill="#FFFFFF" width="745" height="20"/>
<polygon fill="#59AAB5" points="349,315 349,503 293.922,503 414.7,608.125 538.615,504 489,504.475 489,315 "/>
<image overflow="visible" opacity="0.15" width="560" height="294" xlink:href="C:\Users\admin\Desktop\World-Map-Free-Download-PNG.png"  transform="matrix(1.2143 0 0 1.2143 76.6353 49)">
</image>
<text transform="matrix(1 0 0 1 205.7388 366.4648)" fill="#509AA0" font-family="'Axis'" font-size="300">SS</text>
<text transform="matrix(1 0 0 1 205.7388 341.3477)" fill="#FFFFFF" font-family="'Axis'" font-size="300">SS</text>
<polygon fill="#FFFFFF" points="379,442 379,516 348.269,516 415.748,574.338 484.852,515.963 457,516.03 457,442 "/>
<rect x="16" y="655" fill="#59AAB5" width="802" height="119"/>
<text transform="matrix(1 0 0 1 61.8359 748.0723)" fill="#FFFFFF" font-family="'Axis'" font-size="75" letter-spacing="1">ENTRY IMPORTER</text>
<rect x="44" y="77" display="none" opacity="0.2" fill="#FFFFFF" width="20" height="323"/>
<rect x="768" y="77" display="none" opacity="0.2" fill="#FFFFFF" width="20" height="323"/>
<rect x="75" y="47" display="none" opacity="0.2" fill="#FFFFFF" width="689" height="20"/>
<polyline fill="#FFFFFF" points="704,46 790,46 790,133 "/>
<polyline fill="#59AAB5" points="730,59 780,59 780,110 "/>
<polyline fill="#FFFFFF" points="402,442 456,442 456,497 "/>
<polyline fill="#59AAB5" points="419,450 450,450 450,482 "/>
</svg>
